# xmcd
#
# Track frame offsets: 
#        150
#        12669
#        25327
#        35460
#        47448
#        58265
#        69086
#        79143
#        89229
#        100037
#        110937
#        123615
#        133203
#        146626
#        156404
#        165800
#        177268
#        189306
#        200615
#        210743
#        220308
#        242995
#        256036
#        264752
#        278665
#
# Disc length: 3858 seconds
#
# Revision: 0
# Processed by: cddbd v1.5.2PL0 Copyright (c) Steve Scherf et al.
# Submitted via: ExactAudioCopyFreeDBPlugin 1.0
#
DISCID=710f1019
DTITLE=Johnny Cash and June Carter - Country Lovers [CD 3)
DYEAR=1900
DGENRE=Country
TTITLE0=Johnny Cash - I Walk The Line
TTITLE1=Johnny Cash - Long Black Veil (Live)
TTITLE2=June Carter - It´s Raining Here This Morning
TTITLE3=Johnny Cash - I´m So Lonesome I Could Cry
TTITLE4=Johnny Cash - In The Jailhouse Now
TTITLE5=June Carter - No Swallerin´ Place
TTITLE6=Johnny Cash - Just One More
TTITLE7=June Carter - Let Me Go, Lover
TTITLE8=Johnny Cash - My Shoes Keep Walking Back to You
TTITLE9=June Carter - Left Over Lovin´
TTITLE10=Johnny Cash - Ring Of Fire (Live)
TTITLE11=Johnny Cash - Smilling Bill McCall
TTITLE12=June Carter - He Don´t Love My Anemore
TTITLE13=Johnny Cash - Bandana (Instrumental)
TTITLE14=June Carter - A Bucket Of Love
TTITLE15=Johnny Cash - Big River
TTITLE16=Johnny Cash - Sixteen Tons (Live)
TTITLE17=June Carter - Huckle Buck
TTITLE18=Johnny Cash - Girl in Saskatoon
TTITLE19=June Carter - Time´s A Wastin´
TTITLE20=Johnny Cash - Loading Coal
TTITLE21=June Carter - Tennessee Mambo
TTITLE22=Johnny Cash - Second Honymoon
TTITLE23=Johnny Cash - Lumberjack
TTITLE24=June Carter - We´ve Got Things To Do
EXTD=
EXTT0=
EXTT1=
EXTT2=
EXTT3=
EXTT4=
EXTT5=
EXTT6=
EXTT7=
EXTT8=
EXTT9=
EXTT10=
EXTT11=
EXTT12=
EXTT13=
EXTT14=
EXTT15=
EXTT16=
EXTT17=
EXTT18=
EXTT19=
EXTT20=
EXTT21=
EXTT22=
EXTT23=
EXTT24=
PLAYORDER=
